<?xml version="1.0" encoding="UTF-8"?>
<svg xmlns="http://www.w3.org/2000/svg" version="1.1" viewBox="0 0 350 250">
  <defs>
    <style>
      .cls-1 {
        fill: none;
        stroke: #351a55;
        stroke-linecap: round;
        stroke-linejoin: round;
        stroke-width: 3px;
      }
    </style>
  </defs>
  <!-- Generator: Adobe Illustrator 28.7.1, SVG Export Plug-In . SVG Version: 1.2.0 Build 142)  -->
  <g>
    <g id="Layer_1">
      <g>
        <g>
          <line class="cls-1" x1="78.7" y1="60.9" x2="78.7" y2="72"/>
          <line class="cls-1" x1="78.7" y1="80.2" x2="78.7" y2="97.5"/>
          <line class="cls-1" x1="78.7" y1="42.3" x2="78.7" y2="52.7"/>
          <path class="cls-1" d="M78.7,52.7c.9-.8,2.2-1.3,3.5-1.3,3,0,5.4,2.4,5.4,5.4s-2.4,5.4-5.4,5.4-2.6-.5-3.5-1.3"/>
          <path class="cls-1" d="M78.7,80.2c-.9.8-2.2,1.3-3.5,1.3-3,0-5.4-2.4-5.4-5.4s2.4-5.4,5.4-5.4,2.5.5,3.5,1.3"/>
        </g>
        <g>
          <g>
            <line class="cls-1" x1="69.2" y1="97.5" x2="88.1" y2="97.5"/>
            <path class="cls-1" d="M69.2,107.1c0,1.7,1.4,3.2,3.2,3.2h.2c1.5,0,2.7.8,3.6,1.9.6.7,1.5,1.2,2.5,1.2s1.9-.5,2.5-1.2c.9-1.2,2.2-1.9,3.6-1.9h.2c1.7,0,3.2-1.4,3.2-3.2v-9.7c0-5.8,2.2-11.7,6.7-16.1,9.5-9.5,8.9-25.4-1.9-34-8.2-6.6-20.2-6.6-28.4,0-10.8,8.7-11.5,24.5-1.9,34,4.5,4.5,6.7,10.3,6.7,16.1v9.6"/>
          </g>
          <g>
            <line class="cls-1" x1="78.7" y1="25.4" x2="78.7" y2="34"/>
            <line class="cls-1" x1="98.3" y1="30.7" x2="94" y2="38.1"/>
            <line class="cls-1" x1="112.7" y1="45.1" x2="105.3" y2="49.4"/>
            <line class="cls-1" x1="118" y1="64.8" x2="109.4" y2="64.8"/>
            <line class="cls-1" x1="112.7" y1="84.4" x2="105.3" y2="80.1"/>
            <line class="cls-1" x1="44.6" y1="84.4" x2="52.1" y2="80.1"/>
            <line class="cls-1" x1="39.3" y1="64.8" x2="47.9" y2="64.8"/>
            <line class="cls-1" x1="44.6" y1="45.1" x2="52.1" y2="49.4"/>
            <line class="cls-1" x1="59" y1="30.7" x2="63.3" y2="38.1"/>
          </g>
        </g>
      </g>
    </g>
  </g>
</svg>